<?xml version="1.0" encoding="UTF-8" standalone="no"?>
<!DOCTYPE svg PUBLIC "-//W3C//DTD SVG 1.1//EN" "http://www.w3.org/Graphics/SVG/1.1/DTD/svg11.dtd">
<svg width="100%" height="100%" viewBox="0 0 24 24" version="1.1" xmlns="http://www.w3.org/2000/svg" xmlnsXlink="http://www.w3.org/1999/xlink" xmlSpace="preserve" style="fill-rule:evenodd;clip-rule:evenodd;stroke-linejoin:round;stroke-miterlimit:2;">
    <path d="M12,1C5.929,1 1,5.929 1,12C1,18.071 5.929,23 12,23C18.071,23 23,18.071 23,12C23,12 23,11.964 23,11.964C22.998,11.52 22.971,11.076 22.916,10.634C22.823,9.889 22.654,9.153 22.411,8.442C22.144,7.662 21.789,6.913 21.354,6.213C20.907,5.492 20.377,4.823 19.777,4.223C19.177,3.623 18.508,3.093 17.787,2.646C17.087,2.211 16.338,1.856 15.558,1.589C14.836,1.342 14.089,1.171 13.331,1.08C12.89,1.027 12.445,1.001 12,1ZM13,3.055L13,6C13,6.552 12.552,7 12,7C11.448,7 11,6.552 11,6L11,3.055C6.831,3.516 3.517,6.831 3.055,11L6,11C6.552,11 7,11.448 7,12C7,12.552 6.552,13 6,13L3.055,13C3.516,17.169 6.831,20.483 11,20.945L11,18C11,17.448 11.448,17 12,17C12.552,17 13,17.448 13,18L13,20.945C17.169,20.484 20.483,17.169 20.945,13L18,13C17.448,13 17,12.552 17,12C17,11.448 17.448,11 18,11L20.945,11C20.484,6.831 17.169,3.517 13,3.055Z"/>
</svg>
