<?xml version="1.0" encoding="UTF-8" standalone="no"?>
<!DOCTYPE svg PUBLIC "-//W3C//DTD SVG 1.1//EN" "http://www.w3.org/Graphics/SVG/1.1/DTD/svg11.dtd">
<svg width="100%" height="100%" viewBox="0 0 30 24" version="1.1" xmlns="http://www.w3.org/2000/svg" xmlnsXlink="http://www.w3.org/1999/xlink" xmlSpace="preserve" style="fill-rule:evenodd;clip-rule:evenodd;stroke-linejoin:round;stroke-miterlimit:2;">
    <g id="Artboard1" transform="matrix(1.25,0,0,1,0,0)">
        <rect x="0" y="0" width="24" height="24" style="fill:none;"/>
        <g transform="matrix(0.8,0,0,1,2.4,0)">
            <path d="M23,19L23,8C23,6.354 21.646,5 20,5L11.535,5C11.535,5 9.832,2.445 9.832,2.445C9.647,2.167 9.334,2 9,2L4,2C2.354,2 1,3.354 1,5C1,5 1,19 1,19C1,20.646 2.354,22 4,22L20,22C21.646,22 23,20.646 23,19ZM21,19C21,19.549 20.549,20 20,20C20,20 4,20 4,20C3.451,20 3,19.549 3,19L3,5C3,4.451 3.451,4 4,4C4,4 8.465,4 8.465,4C8.465,4 10.168,6.555 10.168,6.555C10.353,6.833 10.666,7 11,7L20,7C20.549,7 21,7.451 21,8L21,19Z"/>
        </g>
    </g>
</svg>
