<?xml version="1.0" encoding="UTF-8" standalone="no"?>
<!DOCTYPE svg PUBLIC "-//W3C//DTD SVG 1.1//EN" "http://www.w3.org/Graphics/SVG/1.1/DTD/svg11.dtd">
<svg width="100%" height="100%" viewBox="0 0 24 24" version="1.1" xmlns="http://www.w3.org/2000/svg" xmlnsXlink="http://www.w3.org/1999/xlink" xmlSpace="preserve" style="fill-rule:evenodd;clip-rule:evenodd;stroke-linejoin:round;stroke-miterlimit:2;">
    <g>
        <path d="M4.045,9.517L4.045,18.022C4.045,18.137 4.065,18.249 4.101,18.352L4.104,18.36C4.141,18.463 4.195,18.562 4.268,18.652C5.445,20.102 7.827,22.949 12,22.949C16.173,22.949 18.555,20.102 19.732,18.652C19.805,18.562 19.859,18.463 19.896,18.36L19.899,18.352C19.935,18.249 19.955,18.137 19.955,18.022L19.955,14.524C19.955,13.972 19.507,13.524 18.955,13.524C18.403,13.524 17.955,13.972 17.955,14.524L17.955,17.667C16.949,18.898 15.117,20.949 12,20.949C8.883,20.949 7.051,18.898 6.045,17.667L6.045,10.569L11.535,13.454C11.826,13.607 12.174,13.607 12.465,13.454L21.017,8.959L21.017,14.524C21.017,15.076 21.465,15.524 22.017,15.524C22.569,15.524 23.017,15.076 23.017,14.524L23.017,7.366C23.017,7.356 23.017,7.345 23.016,7.335C23.017,7.325 23.017,7.314 23.017,7.304C23.017,6.932 22.811,6.592 22.482,6.419L12.465,1.154C12.174,1.001 11.826,1.001 11.535,1.154L1.518,6.419C1.189,6.592 0.983,6.932 0.983,7.304C0.983,7.675 1.189,8.016 1.518,8.189L4.045,9.517ZM12,3.169L19.867,7.304C19.867,7.304 12,11.439 12,11.439C12,11.439 4.133,7.304 4.133,7.304L12,3.169Z"/>
    </g>
</svg>
