<?xml version="1.0" encoding="UTF-8" standalone="no"?>
<!DOCTYPE svg PUBLIC "-//W3C//DTD SVG 1.1//EN" "http://www.w3.org/Graphics/SVG/1.1/DTD/svg11.dtd">
<svg width="100%" height="100%" viewBox="0 0 24 24" version="1.1" xmlns="http://www.w3.org/2000/svg" xmlnsXlink="http://www.w3.org/1999/xlink" xmlSpace="preserve" style="fill-rule:evenodd;clip-rule:evenodd;stroke-linejoin:round;stroke-miterlimit:2;">
    <path d="M12,8C9.792,8 8,9.792 8,12C8,14.208 9.792,16 12,16C14.208,16 16,14.208 16,12C16,9.792 14.208,8 12,8ZM12,10C13.104,10 14,10.896 14,12C14,13.104 13.104,14 12,14C10.896,14 10,13.104 10,12C10,10.896 10.896,10 12,10Z"/>
    <path d="M20.913,15L21,15L21.077,14.999C22.688,14.958 24,13.62 24,12C24,10.354 22.646,9 21,9C21.018,9 21.035,9 21.052,9.001L20.997,9L20.831,9C20.615,8.998 20.416,8.889 20.298,8.713C20.284,8.646 20.263,8.58 20.235,8.516C20.128,8.274 20.179,7.989 20.365,7.799C20.177,7.992 20.415,7.749 20.415,7.749L20.417,7.748C20.98,7.185 21.297,6.421 21.297,5.625C21.297,4.829 20.98,4.065 20.417,3.503C19.855,2.94 19.091,2.623 18.295,2.623C17.499,2.623 16.735,2.94 16.172,3.503L16.171,3.505L16.171,3.505L16.114,3.562C15.925,3.742 15.644,3.791 15.404,3.685C15.4,3.684 15.397,3.682 15.394,3.681C15.156,3.579 15.001,3.345 15,3.086C15.001,3.352 15,3.249 15,3.003L15,3L15,3C15,1.354 13.646,-0 12,0C10.354,0 9,1.354 9,3L9,3.005L9,3.005L9,3.166C8.999,3.413 8.847,3.621 8.625,3.724L8.587,3.737L8.587,3.741C8.363,3.842 8.331,3.847 8.516,3.765C8.274,3.872 7.99,3.821 7.8,3.636L7.749,3.585L7.747,3.583L7.747,3.583C7.185,3.02 6.421,2.703 5.625,2.703C4.829,2.703 4.065,3.02 3.503,3.583C2.94,4.145 2.623,4.909 2.623,5.705C2.623,6.501 2.94,7.265 3.503,7.827L3.505,7.829L3.505,7.829L3.505,7.829L3.539,7.862L3.564,7.883L3.555,7.879C3.741,8.069 3.792,8.354 3.685,8.596C3.677,8.616 3.669,8.635 3.661,8.655C3.57,8.903 3.335,9.072 3.071,9.08L3.071,9.08C3.058,9.08 3.045,9.081 3.033,9.082L3.016,9.083L3,9.084L3,9.08C1.354,9.08 -0,10.434 0,12.08C0,13.726 1.354,15.08 3,15.08L3.167,15.08C3.425,15.081 3.659,15.236 3.761,15.474C3.762,15.477 3.764,15.48 3.765,15.484C3.872,15.726 3.821,16.01 3.636,16.2L3.584,16.252L3.586,16.255L3.585,16.256L3.583,16.252C3.02,16.815 2.703,17.579 2.703,18.375C2.703,19.171 3.02,19.935 3.583,20.497C4.145,21.06 4.909,21.377 5.705,21.377C6.501,21.377 7.265,21.06 7.828,20.497C7.64,20.684 7.885,20.439 7.885,20.439C8.074,20.258 8.356,20.209 8.596,20.315C8.616,20.323 8.635,20.331 8.655,20.339C8.903,20.43 9.072,20.664 9.08,20.929L9.08,20.998L9.08,21L9.08,21C9.08,22.646 10.434,24 12.08,24C13.726,24 15.08,22.646 15.08,21C15.08,21.022 15.079,21.044 15.078,21.066L15.08,20.996L15.08,20.834C15.081,20.575 15.236,20.341 15.474,20.239C15.477,20.238 15.48,20.236 15.484,20.235C15.726,20.128 16.011,20.179 16.201,20.365C16.221,20.385 16.242,20.404 16.264,20.422L16.252,20.417C16.815,20.98 17.579,21.297 18.375,21.297C19.171,21.297 19.935,20.98 20.497,20.417C21.06,19.855 21.377,19.091 21.377,18.295C21.377,17.499 21.06,16.735 20.497,16.173L20.498,16.174L20.496,16.172L20.438,16.114C20.258,15.922 20.21,15.642 20.315,15.404C20.316,15.4 20.318,15.397 20.319,15.394C20.421,15.156 20.655,15.001 20.913,15ZM13.002,3.156C13.001,3.135 13,3.115 13,3.094C13.004,4.147 13.635,5.101 14.602,5.517C15.589,5.951 16.748,5.739 17.519,4.985L17.504,4.991L17.514,4.983C17.527,4.972 17.539,4.962 17.552,4.951L17.585,4.919L17.585,4.919L17.585,4.919L17.588,4.917C17.775,4.729 18.03,4.623 18.295,4.623C18.56,4.623 18.815,4.729 19.003,4.917C19.003,4.917 19.003,4.917 19.003,4.917C19.191,5.105 19.297,5.36 19.297,5.625C19.297,5.89 19.191,6.145 19.003,6.333L18.944,6.392C18.944,6.392 18.654,6.688 18.935,6.401C18.179,7.174 17.969,8.335 18.405,9.324C18.554,9.66 18.558,9.762 18.401,9.394C18.816,10.363 19.772,10.996 20.826,11L21,11C21.549,11 22,11.451 22,12C22,12.549 21.549,13 21,13L21,13L20.997,13L20.912,13L20.875,13.001L20.906,13C19.853,13.004 18.899,13.635 18.483,14.602L18.483,14.602C18.049,15.589 18.261,16.748 19.015,17.519L19.73,17.82L19.025,17.529C19.025,17.529 19.271,17.775 19.083,17.588C19.271,17.775 19.377,18.03 19.377,18.295C19.377,18.56 19.271,18.815 19.083,19.003C19.083,19.003 19.083,19.003 19.083,19.003C18.895,19.191 18.64,19.297 18.375,19.297C18.119,19.297 17.873,19.198 17.688,19.023L17.609,18.945L17.603,18.939L17.599,18.935L17.57,18.907C16.799,18.175 15.657,17.975 14.682,18.403C13.715,18.819 13.084,19.773 13.08,20.826L13.08,21C13.08,21.549 12.629,22 12.08,22C11.531,22 11.08,21.549 11.08,21L11.075,21.005C11.078,20.975 11.08,20.945 11.08,20.915L11.08,20.913L11.08,20.896L11.08,20.887L11.079,20.872L11.079,20.862C11.044,19.794 10.367,18.848 9.368,18.47C8.393,18.053 7.246,18.266 6.481,19.015L6.471,19.025C6.471,19.025 6.414,19.082 6.414,19.082C6.414,19.082 6.127,19.369 6.412,19.083C6.225,19.271 5.97,19.377 5.705,19.377C5.44,19.377 5.185,19.271 4.998,19.083C4.997,19.083 4.997,19.083 4.997,19.082C4.809,18.895 4.703,18.64 4.703,18.375C4.703,18.11 4.809,17.855 4.997,17.667L4.985,17.672C5.009,17.652 5.032,17.631 5.055,17.609L5.055,17.609L5.055,17.609L5.065,17.599C5.819,16.828 6.031,15.669 5.597,14.682C5.181,13.715 4.227,13.084 3.174,13.08L3.174,13.081L3.133,13.08C3.083,13.08 3.039,13.089 3,13.106L3,13.08C2.451,13.08 2,12.629 2,12.08C2,11.531 2.451,11.08 3,11.08L3.082,11.08L3.09,11.08L3.09,11.08L3.113,11.08C4.191,11.055 5.149,10.374 5.53,9.368C5.942,8.406 5.739,7.277 5.015,6.512L4.985,6.481L4.985,6.481L4.976,6.472L4.917,6.413C4.729,6.225 4.623,5.97 4.623,5.705C4.623,5.44 4.729,5.185 4.917,4.998C4.917,4.997 4.917,4.997 4.918,4.997C5.105,4.809 5.36,4.703 5.625,4.703C5.89,4.703 6.145,4.809 6.332,4.997L7.04,5.29L6.335,4.999C6.335,4.999 6.588,5.248 6.401,5.065C7.166,5.813 8.312,6.027 9.295,5.607L9.299,5.606L9.331,5.595L9.333,5.595L9.331,5.595C9.352,5.588 9.373,5.58 9.394,5.571C10.368,5.153 10.996,4.233 11,3.174L11,3.174L11,3.166L11,3.005L11,3L11,3C11,2.451 11.451,2 12,2C12.549,2 13,2.451 13,3L14,4C14,4 13,3.003 13,3.003C13,3.003 13,3.076 13,3.088L13.002,3.156ZM15.075,21.098L15.074,21.108L15.075,21.098ZM16.96,20.71L16.822,20.647L16.804,20.645L16.96,20.71ZM4.446,17.895L4.428,17.897L4.29,17.96L4.446,17.895ZM4.29,17.96L4.264,17.896L4.263,17.896L4.29,17.96ZM4.27,8.18L4.132,8.117L4.117,8.116L4.27,8.18ZM9.293,5.608C9.174,5.655 9.071,5.649 9.071,5.649C9.146,5.644 9.221,5.63 9.293,5.608Z"/>
</svg>
