<?xml version="1.0" encoding="UTF-8" standalone="no"?>
<!DOCTYPE svg PUBLIC "-//W3C//DTD SVG 1.1//EN" "http://www.w3.org/Graphics/SVG/1.1/DTD/svg11.dtd">
<svg width="100%" height="100%" viewBox="0 0 24 24" version="1.1" xmlns="http://www.w3.org/2000/svg" xmlnsXlink="http://www.w3.org/1999/xlink" xml:space="preserve" style="fill-rule:evenodd;clip-rule:evenodd;stroke-linejoin:round;stroke-miterlimit:2;">
    <g>
        <path d="M20,15L20,19C20,19.549 19.549,20 19,20C19,20 5,20 5,20C4.451,20 4,19.549 4,19C4,19 4,15 4,15C4,14.448 3.552,14 3,14C2.448,14 2,14.448 2,15L2,19C2,20.646 3.354,22 5,22L19,22C20.646,22 22,20.646 22,19L22,15C22,14.448 21.552,14 21,14C20.448,14 20,14.448 20,15Z"/>
        <path d="M11,12.586L7.707,9.293C7.317,8.903 6.683,8.903 6.293,9.293C5.903,9.683 5.903,10.317 6.293,10.707L11.293,15.707C11.413,15.827 11.556,15.91 11.708,15.957L11.711,15.958C11.795,15.983 11.884,15.998 11.976,16L12,16L12.024,16C12.116,15.998 12.205,15.983 12.289,15.958L12.292,15.957C12.444,15.91 12.587,15.827 12.707,15.707L17.707,10.707C18.097,10.317 18.097,9.683 17.707,9.293C17.317,8.903 16.683,8.903 16.293,9.293L13,12.586L13,3C13,2.448 12.552,2 12,2C11.448,2 11,2.448 11,3L11,12.586Z"/>
    </g>
</svg>
