<?xml version="1.0" encoding="UTF-8" standalone="no"?>
<!DOCTYPE svg PUBLIC "-//W3C//DTD SVG 1.1//EN" "http://www.w3.org/Graphics/SVG/1.1/DTD/svg11.dtd">
<svg width="100%" height="100%" viewBox="0 0 24 24" version="1.1" xmlns="http://www.w3.org/2000/svg" xmlnsXlink="http://www.w3.org/1999/xlink" xmlSpace="preserve" style="fill-rule:evenodd;clip-rule:evenodd;stroke-linejoin:round;stroke-miterlimit:2;">
    <path d="M21,8L21,7.988C20.998,7.807 20.947,7.637 20.861,7.492C20.819,7.42 20.767,7.353 20.707,7.293L14.707,1.293C14.647,1.233 14.58,1.181 14.508,1.139C14.362,1.053 14.193,1.002 14.012,1L14,1L6,1C4.354,1 3,2.354 3,4L3,20C3,21.646 4.354,23 6,23L18,23C19.646,23 21,21.646 21,20L21,8ZM13,3L6,3C5.451,3 5,3.451 5,4C5,4 5,20 5,20C5,20.549 5.451,21 6,21C6,21 18,21 18,21C18.549,21 19,20.549 19,20L19,9L14,9C13.448,9 13,8.552 13,8L13,3ZM11,14L9,14C8.448,14 8,14.448 8,15C8,15.552 8.448,16 9,16L11,16L11,18C11,18.552 11.448,19 12,19C12.552,19 13,18.552 13,18L13,16L15,16C15.552,16 16,15.552 16,15C16,14.448 15.552,14 15,14L13,14L13,12C13,11.448 12.552,11 12,11C11.448,11 11,11.448 11,12L11,14ZM15,7L17.586,7L15,4.414L15,7Z"/>
</svg>
